<svg xmlns="http://www.w3.org/2000/svg" xml:space="preserve" style="enable-background:new 0 0 64 64" viewBox="0 0 64 64">
  <path d="M57.54 30.52c-1.28-.89-1.8-1.9-2.14-3.32-1.82-7.39-8.93-11.2-16.1-8.58-1.25.46-1.94.32-2.9-.6-4.59-4.39-10.01-5.72-16-3.49-6.1 2.26-9.32 6.88-10.01 13.29-.08.78-.01 1.49-.85 2.04-5.14 3.3-6.45 8-4.85 13.71 2.57 4.97 6.62 7.05 12.23 6.95 10.73-.18 21.46-.18 32.18.01 5.12.09 9.04-1.63 11.85-5.89 2.07-6.21 1-11.02-3.41-14.12zm1.22 10.51c-.87 3.83-4.06 6.25-8.33 6.27-5.8.02-11.61.01-17.41.01-5.8 0-11.61.02-17.41-.01-4.24-.02-7.44-2.49-8.29-6.32-.8-3.61 1.08-7.18 4.91-8.91 1.09-.49 1.35-.98 1.34-2.12-.09-6.31 3.01-10.96 8.28-12.67 5.38-1.74 10.39.08 14.16 5.3.66.9.94 1.07 1.96.39 6.84-4.62 14-1.05 14.57 7.24.08 1.06.44 1.44 1.37 1.88 3.83 1.79 5.68 5.34 4.85 8.94z"/>
</svg>