<svg xmlns="http://www.w3.org/2000/svg" xml:space="preserve" style="enable-background:new 0 0 64 64" viewBox="0 0 64 64">
  <path d="M31.68 45.83c-7.76-.02-14.09-6.44-14.03-14.22.06-7.75 6.5-14.03 14.29-13.95 7.64.08 13.88 6.42 13.89 14.08.01 7.76-6.36 14.11-14.15 14.09z" style="fill:none;stroke:#000;stroke-width:4;stroke-miterlimit:10"/>
  <path d="M19.71 46.25c-.07 1.02-4.76 5.77-5.82 5.89-1.38.16-2.57-1.35-1.81-2.54 1.29-2.01 3.05-3.69 5.02-5.05 1.16-.8 2.7.31 2.61 1.7zM52.17 50.31c-.08.72-.37 1.29-1.06 1.63-.7.35-1.4.26-1.91-.23-1.54-1.47-3.05-2.99-4.51-4.54-.5-.53-.53-1.24-.15-1.91.37-.66.95-.99 1.68-.98 1.18.03 5.95 4.89 5.95 6.03zM33.69 55.24c0 .85.04 1.71-.01 2.56-.06 1.17-.67 2-1.88 2.03-1.2.03-1.92-.75-1.97-1.92-.08-1.79-.07-3.59-.02-5.38.03-1.17.67-2.02 1.87-2.03 1.34-.02 1.96.89 2 2.17.05.86.02 1.71.01 2.57.01 0 0 0 0 0zM33.71 9.01v1.79c.01 1.42-.35 2.7-2.02 2.67-1.49-.03-1.91-1.2-1.9-2.54.01-1.45-.01-2.9 0-4.35.01-1.35.51-2.46 2.02-2.41 1.5.05 1.91 1.2 1.91 2.54-.01.76-.01 1.53-.01 2.3zM19.69 17.89c-.06.66-.34 1.24-1.02 1.59-.69.36-1.39.3-1.91-.19-1.54-1.46-3.04-2.97-4.51-4.51-.49-.52-.55-1.22-.19-1.91.36-.67.93-1 1.66-1 1.16-.02 5.95 4.8 5.97 6.02zM46.26 19.69c-1.39.09-2.48-1.45-1.67-2.62 1.36-1.95 3.03-3.7 5.05-4.98 1.19-.76 2.68.44 2.51 1.83-.13 1.05-4.86 5.7-5.89 5.77zM57.04 29.78c.6.01 1.2.02 1.79.02 1.42.01 2.69.38 2.64 2.06-.05 1.49-1.22 1.9-2.56 1.87-1.45-.03-2.9-.03-4.35-.06-1.35-.03-2.46-.54-2.39-2.05.07-1.5 1.23-1.9 2.56-1.87.77.02 1.54.02 2.31.03zM7.4 29.78c.6.01 1.2.02 1.79.02 1.42.01 2.69.38 2.64 2.06-.05 1.49-1.22 1.9-2.56 1.87-1.45-.03-2.9-.03-4.35-.06-1.35-.03-2.46-.54-2.39-2.05.07-1.5 1.23-1.9 2.56-1.87.77.02 1.54.02 2.31.03z"/>
</svg>