<svg xmlns="http://www.w3.org/2000/svg" xml:space="preserve" id="Camada_1" x="0" y="0" style="enable-background:new 0 0 64 64" version="1.1" viewBox="0 0 64 64">
  <path d="M52.27 21.64c-1.06-.74-1.49-1.57-1.77-2.74-1.5-6.11-7.37-9.26-13.3-7.1-1.03.38-1.6.26-2.4-.5-3.79-3.63-8.27-4.73-13.22-2.88-5.04 1.87-7.7 5.69-8.27 10.98-.07.64-.01 1.23-.7 1.69-4.25 2.73-5.33 6.61-4.01 11.33 2.12 4.11 5.47 5.83 10.11 5.74 8.87-.15 17.74-.15 26.59.01 4.23.07 7.47-1.35 9.79-4.87 1.71-5.13.83-9.1-2.82-11.66zm1.01 8.68c-.72 3.17-3.36 5.17-6.88 5.18-4.79.02-9.59.01-14.39.01s-9.59.02-14.39-.01c-3.5-.02-6.15-2.06-6.85-5.22-.66-2.98.89-5.93 4.06-7.36.9-.4 1.12-.81 1.11-1.75-.07-5.21 2.49-9.06 6.84-10.47 4.45-1.44 8.59.07 11.7 4.38.55.74.78.88 1.62.32 5.65-3.82 11.57-.87 12.04 5.98.07.88.36 1.19 1.13 1.55 3.17 1.48 4.7 4.42 4.01 7.39zM48.47 51.59c-.92-.58-1.49-.49-1.52.86-.02.85-.52 1.44-1.46 1.49-.92.05-1.56-.43-1.65-1.28-.13-1.25-.47-1.67-1.76-1.06-.72.34-1.55.11-1.99-.71-.42-.79-.28-1.59.46-2.03 1.32-.78.69-1.19-.04-2.01-1.29-1.43-.48-3.18 1.4-2.76.83.18 1.57 1.3 1.83-.21.36-2.12 1.35-2.27 1.91-2.12.74.2.93.45 1.21 1.42.38 1.3.6 1.56 1.81.99.75-.35 1.77-.3 2.23.47.5.83-.07 1.79-.72 2.31-.76.6-1.36 1.05-.11 1.8.7.42 1.06 1.16.66 2-.42.93-1.25 1.05-2.26.84zM35.05 54.11c-.92-.58-1.49-.49-1.52.86-.02.85-.52 1.44-1.46 1.49-.92.05-1.56-.43-1.65-1.28-.13-1.25-.47-1.67-1.76-1.06-.72.34-1.55.11-1.99-.71-.42-.79-.28-1.59.46-2.03 1.32-.78.69-1.19-.04-2.01-1.29-1.43-.48-3.18 1.4-2.76.83.18 1.57 1.3 1.83-.21.36-2.12 1.35-2.27 1.91-2.12.74.2.93.45 1.21 1.42.38 1.3.6 1.56 1.81.99.75-.35 1.77-.3 2.23.47.5.83-.07 1.79-.72 2.31-.76.6-1.36 1.05-.11 1.8.7.42 1.06 1.16.66 2-.42.94-1.26 1.06-2.26.84zM21.49 51.59c-.92-.58-1.49-.49-1.52.86-.02.85-.52 1.44-1.46 1.49-.92.05-1.56-.43-1.65-1.28-.13-1.25-.47-1.67-1.76-1.06-.72.34-1.55.11-1.99-.71-.42-.79-.28-1.59.46-2.03 1.32-.78.69-1.19-.04-2.01-1.29-1.43-.48-3.18 1.4-2.76.83.18 1.57 1.3 1.83-.21.36-2.12 1.35-2.27 1.91-2.12.74.2.93.45 1.21 1.42.38 1.3.6 1.56 1.81.99.75-.35 1.77-.3 2.23.47.5.83-.07 1.79-.72 2.31-.76.6-1.36 1.05-.11 1.8.7.42 1.06 1.16.66 2-.42.93-1.25 1.05-2.26.84z" class="st0"/>
</svg>