<svg xmlns="http://www.w3.org/2000/svg" xml:space="preserve" id="Camada_1" x="0" y="0" style="enable-background:new 0 0 64 64" version="1.1" viewBox="0 0 64 64">
  <path d="M50.56 36.67c0 .26.09.51.29.72.07.07.14.15.22.22-.15-.32-.31-.64-.51-.94z"/>
  <path d="M50.92 45.86c-2.35 3.56-5.63 5-9.91 4.93-8.96-.16-17.93-.16-26.9-.01-4.69.08-8.07-1.66-10.22-5.81-1.34-4.77-.25-8.7 4.05-11.46.7-.46.65-1.06.71-1.71.58-5.36 3.27-9.22 8.37-11.11 5.01-1.86 9.54-.75 13.38 2.92.54.52.98.74 1.52.72-.15.65-.22 1.33-.23 2.03 0 .46.73.57.79 1.01l-.77.38c-.85.57-1.09.42-1.64-.33-3.15-4.36-7.34-5.88-11.84-4.43-4.4 1.43-6.99 5.32-6.92 10.59.01.96-.21 1.37-1.12 1.78-3.2 1.44-4.77 4.43-4.1 7.44.71 3.21 3.38 5.27 6.93 5.29 4.84.02 9.7.01 14.55.01 4.85 0 9.71 0 14.55-.01 3.57-.02 6.24-2.04 6.97-5.24.65-2.84.42-5.51-2.44-7.07.93-.4.68-1.06 1.44-1.71 1.05.75 1.88 1.61 2.47 2.59v.01c0 .26.09.51.29.72.07.07.14.15.22.22 0 .01.01.02.02.03.96 2.25.9 5.01-.17 8.22z"/>
  <g>
    <path d="M42.09 18.65c-4.41-.05-8.16 3.05-9.06 7.2.25-.02.51-.08.82-.2 5.48-2.01 10.93.92 12.32 6.57.26 1.09.66 1.87 1.64 2.55.01 0 .01.01.02.01 2-1.68 3.27-4.18 3.27-6.98 0-4.99-4.06-9.1-9.01-9.15z" style="fill:none;stroke:#000;stroke-width:3;stroke-miterlimit:10"/>
    <path d="M55.21 39.83c-.05.47-.24.83-.69 1.05-.45.24-.91.17-1.24-.15-.92-.88-1.83-1.79-2.7-2.71-.01-.01-.02-.02-.02-.03-.07-.06-.14-.14-.2-.2a.948.948 0 0 1-.27-.66v-.01c0-.19.05-.38.16-.58.24-.42.61-.63 1.09-.63.78.03 3.87 3.18 3.87 3.92zM43.24 13.03v1.16c.01.92-.23 1.75-1.31 1.73-.97-.02-1.24-.78-1.24-1.65v-2.82c.01-.88.33-1.6 1.31-1.56.97.03 1.24.78 1.24 1.65-.01.5 0 1 0 1.49zM34.14 18.79c-.04.43-.22.8-.66 1.03-.45.23-.9.19-1.24-.13-1-.95-1.98-1.93-2.92-2.93-.32-.34-.36-.79-.12-1.24.23-.43.6-.65 1.08-.65.74.01 3.84 3.13 3.86 3.92zM51.38 19.96c-.9.06-1.61-.94-1.08-1.7.88-1.27 1.97-2.4 3.28-3.23.77-.49 1.74.29 1.63 1.18-.09.7-3.17 3.71-3.83 3.75zM58.37 26.51c.39 0 .78.01 1.16.01.92 0 1.75.25 1.71 1.33-.03.97-.79 1.23-1.66 1.21-.94-.02-1.88-.02-2.82-.04-.88-.02-1.59-.35-1.55-1.33.05-.97.8-1.23 1.66-1.22.5.03 1 .04 1.5.04z" class="st1"/>
  </g>
</svg>