<svg xmlns="http://www.w3.org/2000/svg" xml:space="preserve" id="Camada_1" x="0" y="0" style="enable-background:new 0 0 64 64" version="1.1" viewBox="0 0 64 64">
  <path d="M52.27 23.12c-1.06-.74-1.49-1.57-1.77-2.74-1.5-6.11-7.38-9.26-13.31-7.09-1.03.38-1.6.26-2.4-.5C31 9.16 26.52 8.06 21.57 9.91c-5.04 1.87-7.7 5.69-8.27 10.98-.07.64-.01 1.23-.7 1.69-4.24 2.72-5.32 6.61-4 11.32 2.12 4.11 5.47 5.83 10.11 5.74 8.87-.15 17.74-.15 26.59.01 4.23.07 7.47-1.35 9.79-4.87 1.71-5.12.83-9.1-2.82-11.66zm1.01 8.69c-.72 3.17-3.36 5.17-6.88 5.18-4.79.01-9.6.01-14.39.01s-9.59.02-14.39-.01c-3.5-.02-6.15-2.06-6.85-5.22-.66-2.98.89-5.93 4.06-7.36.9-.4 1.12-.81 1.11-1.75-.07-5.21 2.49-9.06 6.84-10.47 4.45-1.44 8.59.07 11.7 4.38.55.74.78.88 1.62.32 5.65-3.82 11.57-.87 12.04 5.98.07.88.36 1.19 1.13 1.55 3.17 1.48 4.7 4.41 4.01 7.39z" class="st0"/>
  <circle cx="49.68" cy="48.16" r="2.96" class="st0"/>
  <circle cx="32" cy="48.16" r="2.96" class="st0"/>
  <circle cx="14.88" cy="48.16" r="2.96" class="st0"/>
  <circle cx="23.74" cy="55.35" r="2.96" class="st0"/>
  <circle cx="40.96" cy="55.35" r="2.96" class="st0"/>
</svg>